<svg width="38" height="96" viewBox="0 0 38 96" fill="none" xmlns="http://www.w3.org/2000/svg">
<path d="M7.70699 95C0.0976693 84.5556 0.0976689 74.1111 7.70699 63.6667C14.7643 53.601 14.7643 43.1566 7.70699 32.3333C0.649638 21.8889 0.649638 11.4444 7.70699 0.999996" stroke="black" stroke-width="3"/>
<path d="M18.707 95C11.0977 84.5556 11.0977 74.1111 18.707 63.6667C25.7643 53.601 25.7643 43.1566 18.707 32.3333C11.6496 21.8889 11.6496 11.4444 18.707 0.999996" stroke="#07B2F5" stroke-width="3"/>
<path d="M30.707 95C23.0977 84.5556 23.0977 74.1111 30.707 63.6667C37.7643 53.601 37.7643 43.1566 30.707 32.3333C23.6496 21.8889 23.6496 11.4444 30.707 0.999996" stroke="black" stroke-width="3"/>
</svg>
