<svg width="74" height="95" viewBox="0 0 74 95" fill="none" xmlns="http://www.w3.org/2000/svg">
<path d="M25 3L26.2959 2.24463C26.0263 1.78207 25.5306 1.49829 24.9952 1.50001C24.4598 1.50173 23.9659 1.78869 23.6993 2.25296L25 3ZM23.6993 2.25296C14.9875 17.422 4.46995 40.2395 1.38989 59.2917C-0.145699 68.7904 0.11876 77.6342 3.66985 84.129C7.31061 90.7877 14.2023 94.6349 25.0192 94.4964L24.9808 91.4966C14.9701 91.6248 9.27843 88.1333 6.30209 82.6898C3.23607 77.0822 2.84967 69.06 4.35144 59.7705C7.3461 41.2465 17.6562 18.7991 26.3007 3.74704L23.6993 2.25296ZM25.0192 94.4964C35.8376 94.3579 42.7071 90.3358 46.3343 83.6088C49.8791 77.0348 50.1465 68.1894 48.61 58.7241C45.5292 39.7462 35.0094 17.1934 26.2959 2.24463L23.7041 3.75537C32.347 18.5832 42.6548 40.762 45.6487 59.2048C47.1495 68.4499 46.766 76.4873 43.6937 82.185C40.7039 87.7298 34.99 91.3685 24.9808 91.4966L25.0192 94.4964Z" fill="black"/>
<path d="M25.5 27C13.8033 46.4758 -2.572 85.3414 25.5 84.9977C53.572 84.654 37.1967 46.1894 25.5 27Z" fill="#07B2F5"/>
<path d="M57 0C49.4538 13.4316 38.889 40.2355 57 39.9984C75.111 39.7614 64.5462 13.2341 57 0Z" fill="black"/>
<path d="M66.5 48C72.1597 56.7305 80.0832 74.1531 66.5 73.999C52.9168 73.8449 60.8403 56.6021 66.5 48Z" fill="black"/>
</svg>
