<svg width="54" height="95" viewBox="0 0 54 95" fill="none" xmlns="http://www.w3.org/2000/svg">
<mask id="path-1-inside-1" fill="white">
<path fill-rule="evenodd" clip-rule="evenodd" d="M18.6041 0C22.9763 0 26.5208 3.54442 26.5208 7.91667V59.5553C32.8366 62.5295 37.2083 68.9521 37.2083 76.3958C37.2083 86.6706 28.8789 95 18.6041 95C8.32929 95 -8.01086e-05 86.6706 -8.01086e-05 76.3958C-8.01086e-05 68.9521 4.37154 62.5295 10.6874 59.5553V7.91667C10.6874 3.54441 14.2318 0 18.6041 0Z"/>
</mask>
<path d="M26.5208 59.5553L25.2426 62.2694L23.5208 61.4585V59.5553H26.5208ZM10.6874 59.5553H13.6874V61.4585L11.9655 62.2694L10.6874 59.5553ZM23.5208 7.91667C23.5208 5.20127 21.3195 3 18.6041 3V-3C24.6332 -3 29.5208 1.88757 29.5208 7.91667H23.5208ZM23.5208 59.5553V7.91667H29.5208V59.5553H23.5208ZM34.2083 76.3958C34.2083 70.157 30.547 64.7673 25.2426 62.2694L27.7989 56.8411C35.1263 60.2917 40.2083 67.7473 40.2083 76.3958H34.2083ZM18.6041 92C27.222 92 34.2083 85.0138 34.2083 76.3958H40.2083C40.2083 88.3275 30.5357 98 18.6041 98V92ZM2.99992 76.3958C2.99992 85.0138 9.98614 92 18.6041 92V98C6.67243 98 -3.00008 88.3275 -3.00008 76.3958H2.99992ZM11.9655 62.2694C6.66121 64.7673 2.99992 70.157 2.99992 76.3958H-3.00008C-3.00008 67.7473 2.08187 60.2917 9.4093 56.8411L11.9655 62.2694ZM13.6874 7.91667V59.5553H7.68742V7.91667H13.6874ZM18.6041 3C15.8887 3 13.6874 5.20127 13.6874 7.91667H7.68742C7.68742 1.88756 12.575 -3 18.6041 -3V3Z" fill="black" mask="url(#path-1-inside-1)"/>
<path fill-rule="evenodd" clip-rule="evenodd" d="M18.5 18C19.8807 18 21 19.1193 21 20.5V64.8616C26.6808 65.85 31 70.8047 31 76.7682C31 83.4431 25.589 88.8541 18.9141 88.8541C12.2392 88.8541 6.82816 83.4431 6.82816 76.7682C6.82816 71.0981 10.7329 66.3399 16 65.036V20.5C16 19.1193 17.1193 18 18.5 18Z" fill="#07B2F5"/>
<rect x="29" y="12" width="25" height="4" rx="2" fill="black"/>
<rect x="29" y="21" width="17" height="4" rx="2" fill="black"/>
<rect x="29" y="30" width="9" height="4" rx="2" fill="black"/>
</svg>
