<svg width="54" height="95" viewBox="0 0 54 95" fill="none" xmlns="http://www.w3.org/2000/svg">
<mask id="path-1-inside-1" fill="white">
<path fill-rule="evenodd" clip-rule="evenodd" d="M18.6043 0C22.9766 0 26.521 3.54442 26.521 7.91667V59.5553C32.8369 62.5295 37.2085 68.9521 37.2085 76.3958C37.2085 86.6706 28.8791 95 18.6043 95C8.32953 95 0.000164032 86.6706 0.000164032 76.3958C0.000164032 68.9521 4.37178 62.5295 10.6877 59.5553V7.91667C10.6877 3.54441 14.2321 0 18.6043 0Z"/>
</mask>
<path d="M26.521 59.5553L25.2429 62.2694L23.521 61.4585V59.5553H26.521ZM10.6877 59.5553H13.6877V61.4585L11.9658 62.2694L10.6877 59.5553ZM23.521 7.91667C23.521 5.20127 21.3197 3 18.6043 3V-3C24.6334 -3 29.521 1.88757 29.521 7.91667H23.521ZM23.521 59.5553V7.91667H29.521V59.5553H23.521ZM34.2085 76.3958C34.2085 70.157 30.5472 64.7673 25.2429 62.2694L27.7991 56.8411C35.1265 60.2917 40.2085 67.7473 40.2085 76.3958H34.2085ZM18.6043 92C27.2223 92 34.2085 85.0138 34.2085 76.3958H40.2085C40.2085 88.3275 30.536 98 18.6043 98V92ZM3.00016 76.3958C3.00016 85.0138 9.98639 92 18.6043 92V98C6.67268 98 -2.99984 88.3275 -2.99984 76.3958H3.00016ZM11.9658 62.2694C6.66146 64.7673 3.00016 70.157 3.00016 76.3958H-2.99984C-2.99984 67.7473 2.08211 60.2917 9.40955 56.8411L11.9658 62.2694ZM13.6877 7.91667V59.5553H7.68766V7.91667H13.6877ZM18.6043 3C15.8889 3 13.6877 5.20127 13.6877 7.91667H7.68766C7.68766 1.88756 12.5752 -3 18.6043 -3V3Z" fill="black" mask="url(#path-1-inside-1)"/>
<path fill-rule="evenodd" clip-rule="evenodd" d="M18.5 47C19.8807 47 21 48.1193 21 49.5V64.8616C26.6808 65.85 31 70.8047 31 76.7682C31 83.4431 25.589 88.8541 18.9141 88.8541C12.2392 88.8541 6.82816 83.4431 6.82816 76.7682C6.82816 71.0981 10.7329 66.3399 16 65.036V49.5C16 48.1193 17.1193 47 18.5 47Z" fill="#07B2F5"/>
<rect x="29" y="33" width="25" height="4" rx="2" fill="black"/>
<rect x="29" y="42" width="17" height="4" rx="2" fill="black"/>
<rect x="29" y="51" width="9" height="4" rx="2" fill="black"/>
</svg>
