<svg width="42" height="42" viewBox="0 0 42 42" fill="none" xmlns="http://www.w3.org/2000/svg">
<path d="M8.3999 6.29999V35.7" stroke="#0E1A27" stroke-width="2" stroke-linecap="round" stroke-linejoin="round"/>
<path d="M21 6.29999V35.7" stroke="#0E1A27" stroke-width="2" stroke-linecap="round" stroke-linejoin="round"/>
<path d="M33.6001 6.29999V35.7" stroke="#0E1A27" stroke-width="2" stroke-linecap="round" stroke-linejoin="round"/>
<path d="M8.39997 31.08C9.32781 31.08 10.08 30.3278 10.08 29.4C10.08 28.4721 9.32781 27.72 8.39997 27.72C7.47213 27.72 6.71997 28.4721 6.71997 29.4C6.71997 30.3278 7.47213 31.08 8.39997 31.08Z" stroke="#0E1A27" stroke-width="2" stroke-linecap="round" stroke-linejoin="round"/>
<path d="M21.0001 14.28C21.9279 14.28 22.6801 13.5278 22.6801 12.6C22.6801 11.6721 21.9279 10.92 21.0001 10.92C20.0722 10.92 19.3201 11.6721 19.3201 12.6C19.3201 13.5278 20.0722 14.28 21.0001 14.28Z" stroke="#0E1A27" stroke-width="2" stroke-linecap="round" stroke-linejoin="round"/>
<path d="M33.5999 22.68C34.5278 22.68 35.2799 21.9278 35.2799 21C35.2799 20.0722 34.5278 19.32 33.5999 19.32C32.6721 19.32 31.9199 20.0722 31.9199 21C31.9199 21.9278 32.6721 22.68 33.5999 22.68Z" stroke="#0E1A27" stroke-width="2" stroke-linecap="round" stroke-linejoin="round"/>
</svg>
